<?xml version="1.0" encoding="utf-8"?>
<!-- Generator: Adobe Illustrator 26.5.0, SVG Export Plug-In . SVG Version: 6.00 Build 0)  -->
<!DOCTYPE svg PUBLIC "-//W3C//DTD SVG 1.1//EN" "http://www.w3.org/Graphics/SVG/1.1/DTD/svg11.dtd" [
	<!ENTITY ns_extend "http://ns.adobe.com/Extensibility/1.0/">
	<!ENTITY ns_ai "http://ns.adobe.com/AdobeIllustrator/10.0/">
	<!ENTITY ns_graphs "http://ns.adobe.com/Graphs/1.0/">
	<!ENTITY ns_vars "http://ns.adobe.com/Variables/1.0/">
	<!ENTITY ns_imrep "http://ns.adobe.com/ImageReplacement/1.0/">
	<!ENTITY ns_sfw "http://ns.adobe.com/SaveForWeb/1.0/">
	<!ENTITY ns_custom "http://ns.adobe.com/GenericCustomNamespace/1.0/">
	<!ENTITY ns_adobe_xpath "http://ns.adobe.com/XPath/1.0/">
]>
<svg version="1.1" id="Layer_1" xmlns:x="&ns_extend;" xmlns:i="&ns_ai;" xmlns:graph="&ns_graphs;"
	 xmlns="http://www.w3.org/2000/svg" xmlns:xlink="http://www.w3.org/1999/xlink" x="0px" y="0px" viewBox="0 0 483.2 375"
	 style="enable-background:new 0 0 483.2 375;" xml:space="preserve">
<style type="text/css">
	.st0{fill:#FD4B2D;}
</style>
<metadata>
	<sfw  xmlns="&ns_sfw;">
		<slices></slices>
		<sliceSourceBounds  bottomLeftOrigin="true" height="364.5" width="475.9" x="206.3" y="158.6"></sliceSourceBounds>
	</sfw>
</metadata>
<rect x="263.3" y="81.2" class="st0" width="16.6" height="47.6"/>
<rect x="306.6" y="79.2" class="st0" width="16.7" height="37.2"/>
<path class="st0" d="M63.9,133.6c-22.3,0-42.8,12.2-53.4,31.8h28.3c12.5-10.8,30.7-13.9,43.8,0h29.9
	C100.8,149.6,83.3,133.6,63.9,133.6z"/>
<path class="st0" d="M104.2,194.1c-38.9,81.4-107.2,12-65.5-28.7H10.6c-22.2,38.6,8.5,90.7,53.4,89.5c34.7,0,63.4-51.5,63.4-60.7
	c0-4-5.6-16.3-14.9-28.8H82.6C92.5,174.4,101.1,187.5,104.2,194.1z"/>
<path class="st0" d="M479,80.7v215c0,41.3-33.5,74.7-74.8,74.7h-31.7v-73.2H221.1v73.2h-31.7c-41.3,0-74.7-33.5-74.8-74.7v-67.6
	h240.2V98.7h-116v72.7H114.6V80.7c0-2.9,0.2-5.7,0.5-8.6c0.4-3.4,1-6.8,1.8-10.1c0.3-1.1,0.6-2.1,0.9-3.2c0.1-0.3,0.1-0.5,0.2-0.8
	c0.2-0.5,0.3-1,0.5-1.5s0.4-1,0.6-1.5s0.4-1.2,0.6-1.7s0.5-1.1,0.7-1.7c1.9-4.4,4.1-8.6,6.8-12.6l0.1-0.1c0.7-1,1.4-2,2.1-2.9
	c0.6-0.8,1.2-1.6,1.9-2.4s1.5-1.8,2.2-2.6s1.5-1.6,2.3-2.4l0.1-0.1c0.4-0.4,0.8-0.8,1.3-1.3c2.8-2.7,5.7-5.2,8.9-7.4
	c0.8-0.6,1.7-1.2,2.6-1.8c0.9-0.6,2-1.3,3-1.9c2-1.1,4-2.2,6-3.2c0.6-0.3,1.3-0.6,2-0.9c2.8-1.2,5.8-2.3,8.8-3.2
	c1.1-0.3,2.3-0.7,3.5-0.9c0.5-0.1,1.1-0.3,1.7-0.4c3.3-0.7,6.7-1.2,10.1-1.5l1.5-0.1c0.2,0,0.5,0,0.7,0C187,6,188.2,6,189.3,6h214.9
	c1.2,0,2.3,0,3.4,0.1c0.2,0,0.5,0,0.7,0l1.5,0.1c3.4,0.3,6.8,0.8,10.1,1.5c0.6,0.1,1.2,0.2,1.7,0.4c1.2,0.3,2.3,0.6,3.5,0.9
	c3,0.9,5.9,1.9,8.8,3.2c0.6,0.3,1.3,0.6,2,0.9c2.1,0.9,4,2,6,3.2c1,0.6,2,1.2,3,1.9c1,0.6,1.8,1.2,2.6,1.8c3.7,2.6,7.1,5.6,10.2,8.8
	c0.8,0.8,1.5,1.6,2.3,2.4s1.5,1.7,2.2,2.6s1.2,1.6,1.8,2.4c0.7,1,1.4,2,2.1,2.9l0.1,0.1c2.7,4,4.9,8.2,6.8,12.6
	c0.2,0.6,0.5,1.1,0.7,1.7s0.4,1.1,0.6,1.7s0.4,1,0.6,1.5s0.3,1,0.5,1.5c0.1,0.3,0.2,0.5,0.2,0.8c0.3,1,0.6,2.1,0.9,3.2
	c0.8,3.3,1.5,6.7,1.8,10.1C478.9,74.9,479,77.8,479,80.7z"/>
<path class="st0" d="M466.3,39h-339c13.9-20.7,37.1-33.1,62-33.1h215C429.2,5.9,452.5,18.3,466.3,39z"/>
<path class="st0" d="M478.6,72.1H115.1c1.3-11.9,5.5-23.2,12.2-33.1h339C473,48.9,477.2,60.2,478.6,72.1z"/>
<path class="st0" d="M479.1,80.7v24.5H354.8v-6.4h-116v6.4H114.6V80.7c0-2.9,0.2-5.7,0.5-8.6h363.5
	C478.9,74.9,479.1,77.8,479.1,80.7z"/>
<rect x="114.6" y="105.2" class="st0" width="124.3" height="33.1"/>
<rect x="354.8" y="105.2" class="st0" width="124.3" height="33.1"/>
<rect x="114.6" y="138.3" class="st0" width="124.3" height="33.1"/>
<rect x="354.8" y="138.3" class="st0" width="124.3" height="33.1"/>
</svg>
