<svg xmlns="http://www.w3.org/2000/svg" viewBox="0 0 64 64"><g data-name="computer-hosting-cloud"><path fill="#2488ff" d="M61,32A10.994,10.994,0,0,1,50,43H15A11.991,11.991,0,0,1,9.02,20.61,11,11,0,0,1,20,10c.16,0,.31.02.46.02a12.987,12.987,0,0,1,24.49,5.06A6,6,0,0,1,50,21,10.994,10.994,0,0,1,61,32Z"/><path fill="#bdfdff" d="M53,29V55H11V29a2.006,2.006,0,0,1,2-2H51A2.006,2.006,0,0,1,53,29Z"/><path fill="#46f8ff" d="M27,55H53V29A26,26,0,0,1,27,55Z"/><path fill="#57565c" d="M56,56v3a2.006,2.006,0,0,1-2,2H10a2.006,2.006,0,0,1-2-2V56a1,1,0,0,1,1-1H55A1,1,0,0,1,56,56Z"/><rect width="16" height="3" x="24" y="37" fill="#3e3d42"/><polygon fill="#3e3d42" points="40 27 40 29 24 29 24 27 24 26 40 26 40 27"/><path fill="#e0e0e2" d="M26,58a1,1,0,0,1-1-1V55H39v2a1,1,0,0,1-1,1Z"/><rect width="22" height="8" x="21" y="40" fill="#44ffe8" rx="2"/><rect width="22" height="8" x="21" y="29" fill="#44ffe8" rx="2"/><rect width="22" height="8" x="21" y="18" fill="#44ffe8" rx="2"/><path fill="#00ddc2" d="M41.819 29.181A1.974 1.974 0 0 1 42 30v4a2.006 2.006 0 0 1-2 2H22a1.974 1.974 0 0 1-.819-.181A2 2 0 0 0 23 37H41a2.006 2.006 0 0 0 2-2V31A2 2 0 0 0 41.819 29.181zM41.819 40.181A1.974 1.974 0 0 1 42 41v4a2.006 2.006 0 0 1-2 2H22a1.974 1.974 0 0 1-.819-.181A2 2 0 0 0 23 48H41a2.006 2.006 0 0 0 2-2V42A2 2 0 0 0 41.819 40.181zM41.819 18.181A1.974 1.974 0 0 1 42 19v4a2.006 2.006 0 0 1-2 2H22a1.974 1.974 0 0 1-.819-.181A2 2 0 0 0 23 26H41a2.006 2.006 0 0 0 2-2V20A2 2 0 0 0 41.819 18.181z"/><circle cx="26" cy="22" r="2" fill="#d80027"/><circle cx="26" cy="33" r="2" fill="#d80027"/><circle cx="26" cy="44" r="2" fill="#d80027"/><circle cx="32" cy="22" r="2" fill="#ffda44"/><circle cx="32" cy="33" r="2" fill="#ffda44"/><circle cx="32" cy="44" r="2" fill="#ffda44"/><circle cx="38" cy="22" r="2" fill="#c2fb3b"/><circle cx="38" cy="33" r="2" fill="#c2fb3b"/><circle cx="38" cy="44" r="2" fill="#c2fb3b"/><rect width="16" height="1" x="24" y="26" fill="#2d2d30"/><rect width="16" height="1" x="24" y="37" fill="#2d2d30"/><rect width="6" height="2" x="10" y="56" fill="#787680" rx="1"/></g></svg>