<svg xmlns="http://www.w3.org/2000/svg" width="512" height="512" viewBox="0 0 512 512" style="isolation:isolate"><path fill="#9FE5FF" d=" M 506.016 389.805 L 506.016 389.805 L 506.016 78.82 L 168.699 78.82 L 133.243 78.82 L 133.243 78.82 L 18.26 78.82 L 18.26 389.805 L 18.26 389.805 L 18.26 420.904 L 65.726 420.904 L 65.726 389.805 L 133.243 389.805 L 168.699 389.805 L 458.549 389.805 L 458.549 420.904 L 506.016 420.904 L 506.016 389.805 Z "/><linearGradient id="a" x1=".31" x2=".659" y1="1.008" y2=".061" gradientTransform="matrix(379.312 0 0 306.409 107.25 98.13)" gradientUnits="userSpaceOnUse"><stop offset="1.739%" stop-color="#0397f2"/><stop offset="99.13%" stop-color="#3ccbff"/></linearGradient><rect width="379.312" height="306.409" x="107.25" y="98.13" fill="url(#a)"/><path fill="#FFDC74" fill-rule="evenodd" d=" M 157.79 106.52 L 477.24 106.52 L 477.24 196.98 L 157.79 196.98 L 157.79 106.52 Z  M 164.79 113.52 L 470.24 113.52 L 470.24 189.98 L 164.79 189.98 L 164.79 113.52 Z "/><linearGradient id="b" x1=".406" x2=".661" y1="1.019" y2=".115" gradientTransform="matrix(312.456 0 0 83.456 146.691 124.739)" gradientUnits="userSpaceOnUse"><stop offset="0%" stop-color="#fbb334"/><stop offset="100%" stop-color="#ffdc74"/></linearGradient><rect width="312.456" height="83.456" x="146.691" y="124.739" fill="url(#b)"/><rect width="64.329" height="138.844" x="146.691" y="234.804" fill="#0290E8" transform="rotate(180 178.855 304.226)"/><rect width="49.291" height="9.427" x="154.21" y="357.893" fill="#FFF" transform="rotate(180 178.855 362.607)"/><rect width="64.329" height="138.844" x="229.4" y="234.804" fill="#0290E8" transform="rotate(180 261.564 304.226)"/><rect width="49.291" height="9.427" x="236.919" y="357.893" fill="#FFF" transform="rotate(180 261.564 362.607)"/><rect width="64.329" height="138.844" x="312.109" y="234.804" fill="#0290E8" transform="rotate(180 344.274 304.226)"/><rect width="49.291" height="9.427" x="319.628" y="357.893" fill="#FFF" transform="rotate(180 344.274 362.607)"/><rect width="64.329" height="138.844" x="394.818" y="234.804" fill="#0290E8" transform="rotate(180 426.983 304.226)"/><rect width="49.291" height="9.427" x="402.337" y="357.893" fill="#FFF" transform="rotate(180 426.983 362.607)"/><rect width="113.291" height="306.409" x="5.984" y="98.13" fill="#0290E8"/><rect width="38.301" height="12.655" x="43.479" y="367.321" fill="#FFF"/><rect width="38.301" height="12.655" x="43.479" y="346.079" fill="#FFF"/><rect width="46.768" height="34.219" x="5.984" y="400.961" fill="#0290E8" transform="rotate(180 29.368 418.07)"/><rect width="46.768" height="30.641" x="439.795" y="404.539" fill="#0290E8" transform="rotate(180 463.178 419.859)"/></svg>