<svg id="icons" xmlns="http://www.w3.org/2000/svg" xmlns:xlink="http://www.w3.org/1999/xlink" viewBox="0 0 48 48"><defs><linearGradient id="New_Gradient_Swatch_5" x1="24" y1="47.52" x2="24" y2="0.48" gradientUnits="userSpaceOnUse"><stop offset="0" stop-color="#fd7d47"/><stop offset="1" stop-color="#ff5099"/></linearGradient></defs><title>user-people-family-house-home</title><path id="user-people-family-house-home" d="M48,24.48l-8.74-8.74h.12V7.54h-4.1v4.22L24,.48l-24,24,2.9,2.9,1.62-1.63V47.52h39V25.75l1.62,1.63ZM39.38,43.42H8.62V21.65L24,6.28,39.38,21.65ZM26.05,29.07a4.1,4.1,0,0,1,4.1,4.1v6.15H17.85V33.17a4.1,4.1,0,0,1,4.1-4.1ZM24,18.82a4.1,4.1,0,1,1-4.1,4.1A4.1,4.1,0,0,1,24,18.82Z" fill="url(#New_Gradient_Swatch_5)"/></svg>