<svg xmlns="http://www.w3.org/2000/svg" viewBox="0 0 24 24"><path fill="#303C42" d="M21 1H3c-1.103 0-2 .897-2 2v18c0 1.103.897 2 2 2h18c1.103 0 2-.897 2-2V3c0-1.103-.897-2-2-2z"/><path fill="#5C6671" d="M22 21c0 .551-.449 1-1 1H3c-.551 0-1-.449-1-1V3c0-.551.449-1 1-1h18c.551 0 1 .449 1 1v18z"/><path fill="#303C42" d="M13.5 9h-1V4.5a.5.5 0 1 0-1 0V9h-1a.5.5 0 0 0-.5.5v2a.5.5 0 0 0 .5.5h1v1.5a.5.5 0 1 0 1 0V12h1a.5.5 0 0 0 .5-.5v-2a.5.5 0 0 0-.5-.5z"/><path fill="#FF8F00" d="M11 10h2v1h-2z"/><path fill="#303C42" d="M19.5 8h-1V4.5a.5.5 0 1 0-1 0V8h-1a.5.5 0 0 0-.5.5v2a.5.5 0 0 0 .5.5h1v2.5a.5.5 0 1 0 1 0V11h1a.5.5 0 0 0 .5-.5v-2a.5.5 0 0 0-.5-.5z"/><path fill="#FF8F00" d="M17 9h2v1h-2z"/><path fill="#303C42" d="M7.5 6h-1V4.5a.5.5 0 1 0-1 0V6h-1a.5.5 0 0 0-.5.5v2a.5.5 0 0 0 .5.5h1v4.5a.5.5 0 1 0 1 0V9h1a.5.5 0 0 0 .5-.5v-2a.5.5 0 0 0-.5-.5z"/><path fill="#FF8F00" d="M5 7h2v1H5z"/><circle cx="12" cy="18" r="2" fill="#303C42"/><circle cx="18" cy="18" r="2" fill="#303C42"/><circle cx="18" cy="18" r="1" fill="#FF8F00"/><path d="M18.408 17.092a.985.985 0 0 1 .092.408c0 .551-.449 1-1 1a.985.985 0 0 1-.408-.092A.999.999 0 0 0 18 19c.551 0 1-.449 1-1a.999.999 0 0 0-.592-.908z" opacity=".1"/><circle cx="6" cy="18" r="2" fill="#303C42"/><circle cx="12" cy="18" r="1" fill="#FF8F00"/><path d="M12.408 17.092a.985.985 0 0 1 .092.408c0 .551-.449 1-1 1a.985.985 0 0 1-.408-.092A.999.999 0 0 0 12 19c.551 0 1-.449 1-1a.999.999 0 0 0-.592-.908z" opacity=".1"/><circle cx="6" cy="18" r="1" fill="#FF8F00"/><path d="M6.408 17.092a.985.985 0 0 1 .092.408c0 .551-.449 1-1 1a.985.985 0 0 1-.408-.092A.999.999 0 0 0 6 19c.551 0 1-.449 1-1a.999.999 0 0 0-.592-.908z" opacity=".1"/><path fill="#FF8F00" d="M10.461 19.262l-.004.004.04.039-.036-.043z"/><linearGradient id="a" x1="5.148" x2="21.553" y1="5.455" y2="21.86" gradientUnits="userSpaceOnUse"><stop offset="0" stop-opacity=".1"/><stop offset="1" stop-opacity="0"/></linearGradient><path fill="url(#a)" d="M7.61 16.823c.242.331.39.736.39 1.177 0 1.103-.897 2-2 2-.5 0-.953-.191-1.305-.496L7.192 22h5.598l-5.178-5.178-.003.001zm-3.153 2.443l.04.039-.036-.043-.004.004zM5.5 9h-1a.497.497 0 0 1-.349-.143L5.5 10.206V9zm12.903-4.792v.01a.487.487 0 0 1 .097.282V8h1a.5.5 0 0 1 .5.5v2a.5.5 0 0 1-.5.5h-1v2.5a.5.5 0 1 1-1 0V11h-1a.5.5 0 0 1-.5-.5v-2c0-.18.1-.329.24-.417L12.46 4.3v.002c.026.06.041.127.041.197V9h1a.5.5 0 0 1 .5.5v2a.5.5 0 0 1-.5.5h-1v1.5a.5.5 0 1 1-1 0V12h-1a.5.5 0 0 1-.5-.5v-2a.5.5 0 0 1 .5-.5h.687L6.395 4.208c.062.083.105.18.105.292V6h1a.5.5 0 0 1 .5.5v2a.5.5 0 0 1-.5.5h-1v4.5a.5.5 0 0 1-.5.5l4 4c0-1.103.897-2 2-2s2 .897 2 2-.897 2-2 2c-.5 0-.953-.191-1.305-.496L13.192 22H21c.551 0 1-.449 1-1V7.805l-3.597-3.597zM18 20c-1.103 0-2-.897-2-2s.897-2 2-2 2 .897 2 2-.897 2-2 2z"/><linearGradient id="b" x1="-.652" x2="24.652" y1="6.1" y2="17.9" gradientUnits="userSpaceOnUse"><stop offset="0" stop-color="#FFF" stop-opacity=".2"/><stop offset="1" stop-color="#FFF" stop-opacity="0"/></linearGradient><path fill="url(#b)" d="M21 1H3c-1.103 0-2 .897-2 2v18c0 1.103.897 2 2 2h18c1.103 0 2-.897 2-2V3c0-1.103-.897-2-2-2z"/></svg>