<svg xmlns="http://www.w3.org/2000/svg" width="128" height="128" viewBox="0 0 33.867 33.867" id="gold-bar"><path fill="#06f" d="M4.2551956 24.744855h4.1853859c1.1593518 0 1.8245445.441604 2.0926925 1.56952l1.046346 4.401268c.268148 1.127916-.295723 2.092692-1.455076 2.092692H2.7265492c-1.1593517 0-1.87853991-.964776-1.6103923-2.092692l1.0463463-4.401268c.2681478-1.127916.9333408-1.56952 2.0926924-1.56952zM25.425949 24.744855h4.185385c1.159353 0 1.824545.441604 2.092693 1.56952l1.046346 4.401268c.268148 1.127916-.295723 2.092692-1.455075 2.092692h-7.397996c-1.159351 0-1.87854-.964776-1.610392-2.092692l1.046346-4.401268c.268148-1.127916.933341-1.56952 2.092693-1.56952z" paint-order="markers fill stroke"></path><path fill="#06f" d="m 14.840572,24.744855 h 4.185386 c 1.159352,0 1.824545,0.441604 2.092693,1.56952 l 1.046346,4.401268 c 0.268148,1.127916 -0.295724,2.092692 -1.455076,2.092692 h -7.397996 c -1.159351,0 -1.87854,-0.964776 -1.610392,-2.092692 l 1.046346,-4.401268 c 0.268148,-1.127916 0.933342,-1.56952 2.092693,-1.56952 z" paint-order="markers fill stroke"></path><path fill="#00a1ff" d="m 9.5430679,16.681375 h 4.1853861 c 1.159352,0 1.824545,0.441604 2.092693,1.56952 l 1.046346,4.401268 c 0.268148,1.127916 -0.295723,2.092692 -1.455076,2.092692 H 8.0144215 c -1.1593517,0 -1.8785399,-0.964776 -1.6103923,-2.092692 l 1.0463463,-4.401268 c 0.2681478,-1.127916 0.9333408,-1.56952 2.0926924,-1.56952 z" paint-order="markers fill stroke"></path><path fill="#00a1ff" d="m 20.128445,16.681375 h 4.185386 c 1.159352,0 1.824545,0.441604 2.092693,1.56952 l 1.046346,4.401268 c 0.268148,1.127916 -0.295724,2.092692 -1.455076,2.092692 h -7.397996 c -1.159351,0 -1.87854,-0.964776 -1.610392,-2.092692 l 1.046346,-4.401268 c 0.268148,-1.127916 0.933342,-1.56952 2.092693,-1.56952 z" paint-order="markers fill stroke"></path><path fill="#00a1ff" d="M14.835757 8.617895h4.185386c1.159352 0 1.824545.441604 2.092693 1.56952l1.046346 4.401268c.268148 1.127916-.295724 2.092692-1.455076 2.092692H13.30711c-1.159351 0-1.87854-.964776-1.610392-2.092692l1.046346-4.401268c.268148-1.127916.933342-1.56952 2.092693-1.56952zM11.091952 9.9273137A1.629271 1.629271 0 0 1 9.4626816 11.556585 1.629271 1.629271 0 0 1 7.8334102 9.9273137 1.629271 1.629271 0 0 1 9.4626816 8.2980428 1.629271 1.629271 0 0 1 11.091952 9.9273137zM21.424581 4.4407783a1.629271 1.629271 0 0 1-1.629271 1.629271 1.629271 1.629271 0 0 1-1.629271-1.629271 1.629271 1.629271 0 0 1 1.629271-1.629271 1.629271 1.629271 0 0 1 1.629271 1.629271z" paint-order="markers fill stroke"></path><path fill="#a8d0ff" d="m 31.485417,16.196723 a 1.629271,1.629271 0 0 1 -1.629271,1.629271 1.629271,1.629271 0 0 1 -1.629271,-1.629271 1.629271,1.629271 0 0 1 1.629271,-1.629271 1.629271,1.629271 0 0 1 1.629271,1.629271 z" paint-order="markers fill stroke"></path><path fill="#00a1ff" d="m 3.7041664,12.735898 a 0.92512478,2.5705894 0 0 0 -0.8700772,1.699854 2.5705894,0.92512478 0 0 0 -1.700621,0.870845 2.5705894,0.92512478 0 0 0 1.7002375,0.870076 0.92512478,2.5705894 0 0 0 0.8704607,1.700239 0.92512478,2.5705894 0 0 0 0.8708445,-1.700239 2.5705894,0.92512478 0 0 0 1.6998545,-0.870076 2.5705894,0.92512478 0 0 0 -1.7002382,-0.87046 0.92512478,2.5705894 0 0 0 -0.8704608,-1.700239 z" paint-order="markers fill stroke"></path><path fill="#a8d0ff" d="M7.1653068 1.058333A.92512478 2.5705894 0 0 0 6.2952296 2.758187 2.5705894.92512478 0 0 0 4.5946086 3.629032 2.5705894.92512478 0 0 0 6.2948461 4.499108.92512478 2.5705894 0 0 0 7.1653068 6.199347.92512478 2.5705894 0 0 0 8.0361513 4.499108 2.5705894.92512478 0 0 0 9.7360058 3.629032 2.5705894.92512478 0 0 0 8.0357676 2.758572.92512478 2.5705894 0 0 0 7.1653068 1.058333zM26.149161 6.3499997a.92512478 2.5705894 0 0 0-.870077 1.699854 2.5705894.92512478 0 0 0-1.700621.870845 2.5705894.92512478 0 0 0 1.700237.870076.92512478 2.5705894 0 0 0 .870461 1.7002393.92512478 2.5705894 0 0 0 .870845-1.7002393 2.5705894.92512478 0 0 0 1.699854-.870076 2.5705894.92512478 0 0 0-1.700238-.87046.92512478 2.5705894 0 0 0-.870461-1.700239z" paint-order="markers fill stroke"></path></svg>