<svg xmlns="http://www.w3.org/2000/svg" viewBox="0 0 24 24"><path fill="#303C42" d="M1 7h20v3H1z"/><path d="M1 7h20v3H1z" opacity=".1"/><path fill="#303C42" d="M0 3v4a1 1 0 0 0 1 1h20a1 1 0 0 0 1-1V3a1 1 0 0 0-1-1H1a1 1 0 0 0-1 1z"/><path d="M21 7.75H1a1 1 0 0 1-1-1V7a1 1 0 0 0 1 1h20a1 1 0 0 0 1-1v-.25a1 1 0 0 1-1 1z" opacity=".2"/><path fill="#FFF" d="M21 2H1a1 1 0 0 0-1 1v.25a1 1 0 0 1 1-1h20a1 1 0 0 1 1 1V3a1 1 0 0 0-1-1z" opacity=".1"/><circle cx="18.5" cy="5" r=".5" fill="#69B342"/><circle cx="16.5" cy="5" r=".5" fill="#69B342"/><circle cx="14.5" cy="5" r=".5" fill="#69B342"/><circle cx="4" cy="5" r="1" fill="#C6CDD1"/><linearGradient id="a" x1="3.368" x2="4.487" y1="4.368" y2="5.487" gradientUnits="userSpaceOnUse"><stop offset="0" stop-opacity=".1"/><stop offset="1" stop-opacity="0"/></linearGradient><circle cx="4" cy="5" r="1" fill="url(#a)"/><path fill="#303C42" d="M0 10v4a1 1 0 0 0 1 1h20a1 1 0 0 0 1-1v-4a1 1 0 0 0-1-1H1a1 1 0 0 0-1 1z"/><path d="M21 14.75H1a1 1 0 0 1-1-1V14a1 1 0 0 0 1 1h20a1 1 0 0 0 1-1v-.25a1 1 0 0 1-1 1z" opacity=".2"/><path fill="#FFF" d="M21 9H1a1 1 0 0 0-1 1v.25a1 1 0 0 1 1-1h20a1 1 0 0 1 1 1V10a1 1 0 0 0-1-1z" opacity=".1"/><circle cx="18.5" cy="12" r=".5" fill="#69B342"/><circle cx="16.5" cy="12" r=".5" fill="#69B342"/><circle cx="14.5" cy="12" r=".5" fill="#69B342"/><circle cx="4" cy="12" r="1" fill="#C6CDD1"/><linearGradient id="b" x1="3.368" x2="4.487" y1="11.368" y2="12.487" gradientUnits="userSpaceOnUse"><stop offset="0" stop-opacity=".1"/><stop offset="1" stop-opacity="0"/></linearGradient><circle cx="4" cy="12" r="1" fill="url(#b)"/><circle cx="18.5" cy="16.5" r="5.5" fill="#0097CF"/><path d="M18.5 21.75a5.622 5.622 0 0 1-5.263-3.654 5.5 5.5 0 0 0 10.526 0A5.622 5.622 0 0 1 18.5 21.75z" opacity=".1"/><path fill="#FFF" d="M18.5 11.25a5.622 5.622 0 0 1 5.263 3.654 5.5 5.5 0 0 0-10.526 0A5.622 5.622 0 0 1 18.5 11.25z" opacity=".2"/><path fill="#FFF" d="M17 16l-.643-.76c.047-.08.093-.159.147-.231A2.488 2.488 0 0118.5 14c.745 0 1.398.341 1.855.86l.806-.605A3.457 3.457 0 0018.5 13a3.5 3.5 0 00-3.5 3.5c0 .314.055.612.132.901L17 16zM20 17l.643.76c-.047.08-.093.159-.147.231A2.488 2.488 0 0118.5 19c-.745 0-1.398-.341-1.855-.86l-.806.605A3.457 3.457 0 0018.5 20a3.5 3.5 0 003.5-3.5c0-.314-.055-.612-.132-.901L20 17z"/><linearGradient id="c" x1="16.736" x2="22.387" y1="14.74" y2="20.391" gradientUnits="userSpaceOnUse"><stop offset="0" stop-opacity=".1"/><stop offset="1" stop-opacity="0"/></linearGradient><path fill="url(#c)" d="M21.16 14.255l-.805.604c-.457-.518-1.11-.859-1.855-.859-.82 0-1.54.4-1.996 1.009-.054.072-.1.152-.147.23L17 16l-1.868 1.401 1.071 1.071.442-.331c.457.518 1.11.859 1.855.859.82 0 1.54-.4 1.996-1.009.054-.072.1-.152.147-.23L20 17l1.868-1.401c.077.29.132.587.132.901a3.5 3.5 0 0 1-3.5 3.5c-.878 0-1.662-.34-2.272-.878l-.007.012 2.838 2.838a5.502 5.502 0 0 0 4.912-4.907l-2.81-2.81z"/><linearGradient id="d" x1="-.227" x2="25.211" y1="3.265" y2="15.126" gradientUnits="userSpaceOnUse"><stop offset="0" stop-color="#FFF" stop-opacity=".2"/><stop offset="1" stop-color="#FFF" stop-opacity="0"/></linearGradient><path fill="url(#d)" d="M22 12.257V10a1 1 0 0 0-1-1V8a1 1 0 0 0 1-1V3a1 1 0 0 0-1-1H1a1 1 0 0 0-1 1v4a1 1 0 0 0 1 1v1a1 1 0 0 0-1 1v4a1 1 0 0 0 1 1h12.212c-.135.477-.212.98-.212 1.5a5.5 5.5 0 1 0 9-4.243z"/></svg>